<?xml version="1.0" encoding="UTF-8" standalone="no"?>
<!DOCTYPE svg PUBLIC "-//W3C//DTD SVG 1.1//EN" "http://www.w3.org/Graphics/SVG/1.1/DTD/svg11.dtd">
<svg version="1.1" xmlns="http://www.w3.org/2000/svg" xmlns:xlink="http://www.w3.org/1999/xlink" preserveAspectRatio="xMidYMid meet" viewBox="0 0 640 640" width="640" height="640"><defs><path d="M448 327.68C448 495.87 448 589.31 448 608C448 625.67 433.67 640 416 640C377.6 640 70.4 640 32 640C14.33 640 0 625.67 0 608C0 569.6 0 262.4 0 224C0 206.33 14.33 192 32 192C50.69 192 144.13 192 312.32 192L248.32 256L64 256L64 576L384 576L384 391.68L448 327.68ZM576 109.12C576 216.45 576 276.07 576 288C576 305.67 590.33 320 608 320C625.67 320 640 305.67 640 288C640 262.4 640 57.6 640 32C640 14.33 625.67 0 608 0C582.4 0 377.6 0 352 0C334.33 0 320 14.33 320 32C320 49.67 334.33 64 352 64C363.93 64 423.55 64 530.88 64C333.12 261.57 223.25 371.33 201.28 393.28C188.73 405.83 188.73 426.17 201.28 438.72C213.83 451.27 234.17 451.27 246.72 438.72C290.62 394.77 400.38 284.91 576 109.12Z" id="aIUUe6hX0"></path></defs><g><g><g><use xlink:href="#aIUUe6hX0" opacity="1" fill="#000000" fill-opacity="1"></use><g><use xlink:href="#aIUUe6hX0" opacity="1" fill-opacity="0" stroke="#000000" stroke-width="1" stroke-opacity="0"></use></g></g></g></g></svg>