<?xml version="1.0" encoding="UTF-8" standalone="no"?>
<!DOCTYPE svg PUBLIC "-//W3C//DTD SVG 1.1//EN" "http://www.w3.org/Graphics/SVG/1.1/DTD/svg11.dtd">
<svg version="1.1" xmlns="http://www.w3.org/2000/svg" xmlns:xlink="http://www.w3.org/1999/xlink" preserveAspectRatio="xMidYMid meet" viewBox="0 0 640 640" width="640" height="640"><defs><path d="M340 300C340 132 340 38.67 340 20C340 8.67 331.33 0 320 0C308.67 0 300 8.67 300 20C300 38.67 300 132 300 300C132 300 38.67 300 20 300C8.67 300 0 308.67 0 320C0 331.33 8.67 340 20 340C38.67 340 132 340 300 340C300 508 300 601.33 300 620C300 631.33 308.67 640 320 640C331.33 640 340 631.33 340 620C340 601.33 340 508 340 340C508 340 601.33 340 620 340C631.33 340 640 331.33 640 320C640 308.67 631.33 300 620 300C582.67 300 489.33 300 340 300Z" id="aLWwJpzcH"></path></defs><g><g><g><use xlink:href="#aLWwJpzcH" opacity="1" fill="#000000" fill-opacity="1"></use><g><use xlink:href="#aLWwJpzcH" opacity="1" fill-opacity="0" stroke="#000000" stroke-width="1" stroke-opacity="0"></use></g></g></g></g></svg>