<?xml version="1.0" encoding="UTF-8" standalone="no"?>
<!DOCTYPE svg PUBLIC "-//W3C//DTD SVG 1.1//EN" "http://www.w3.org/Graphics/SVG/1.1/DTD/svg11.dtd">
<svg version="1.1" xmlns="http://www.w3.org/2000/svg" xmlns:xlink="http://www.w3.org/1999/xlink" preserveAspectRatio="xMidYMid meet" viewBox="0 0 640 640" width="640" height="640"><defs><path d="M31.2 558.7L141.8 448.09L155.04 461.33L57.67 558.7L81.3 582.33L178.67 484.96L191.91 498.2L81.3 608.8L31.2 558.7Z" id="a4eBVaOsMu"></path><path d="M190.01 498.2C185.19 493.38 146.62 454.81 141.8 449.99C118.17 426.35 118.17 387.59 141.8 363.01C142.24 362.57 144.45 360.37 148.42 356.4L283.6 491.58C279.63 495.55 277.43 497.76 276.99 498.2C265.64 509.54 250.52 516.16 233.5 516.16C217.43 516.16 201.36 509.54 190.01 498.2ZM155.04 436.75C159.86 441.57 198.43 480.14 203.25 484.96C210.81 492.53 222.16 497.25 233.5 497.25C242.01 497.25 249.57 495.36 256.19 490.64C249.07 483.51 213.46 447.91 149.36 383.81C143.69 409.65 145.58 427.3 155.04 436.75Z" id="a1c33RRk5f"></path><path d="M56.72 633.38C51.81 628.47 12.48 589.14 7.56 584.22C2.84 579.5 0 572.88 0 565.32C0 557.75 2.84 551.14 7.56 546.41C17.96 536.01 34.98 536.01 45.38 546.41C50.29 551.33 89.62 590.65 94.53 595.57C104.93 605.97 104.93 622.98 94.53 633.38C89.81 638.11 83.19 640.95 75.63 640.95C68.06 640.95 61.45 638.11 56.72 633.38ZM20.8 558.7C18.91 560.59 18.91 562.48 18.91 564.37C18.91 566.26 19.85 568.15 20.8 570.04C25.71 574.96 65.04 614.29 69.96 619.2C72.79 622.04 78.46 622.04 81.3 619.2C84.14 616.37 84.14 611.64 81.3 607.86C76.38 602.94 37.06 563.62 32.14 558.7C30.25 557.75 28.36 556.81 26.47 556.81C24.58 556.81 22.69 557.75 20.8 558.7Z" id="b2Jy1qbkjo"></path><path d="M245.79 475.51L621.09 100.21L621.09 18.91L549.25 18.91L179.62 400.83L166.38 387.59L541.68 0L640 0L640 107.77L259.03 488.74L245.79 475.51Z" id="fc7SyKICr"></path><path d="M580.5 72.84C580.5 72.84 580.5 72.84 580.5 72.84C376.42 282.63 263.03 399.18 240.36 422.49C240.36 422.49 240.36 422.49 240.36 422.49C232.23 414.58 227.71 410.19 226.81 409.31C226.81 409.31 226.81 409.31 226.81 409.31C430.89 199.52 544.27 82.97 566.95 59.65C566.95 59.65 566.95 59.65 566.95 59.65C575.08 67.57 579.6 71.96 580.5 72.84Z" id="aBbWTdFI6"></path><path d="M101.15 510.49C101.15 510.49 101.15 510.49 101.15 510.49C101.15 550.19 101.15 572.25 101.15 576.66C101.15 576.66 101.15 576.66 101.15 576.66C89.81 576.66 83.51 576.66 82.25 576.66C82.25 576.66 82.25 576.66 82.25 576.66C82.25 536.96 82.25 514.9 82.25 510.49C82.25 510.49 82.25 510.49 82.25 510.49C93.59 510.49 99.89 510.49 101.15 510.49Z" id="c10oCf4L9P"></path><path d="M138.97 472.67C138.97 472.67 138.97 472.67 138.97 472.67C138.97 512.38 138.97 534.44 138.97 538.85C138.97 538.85 138.97 538.85 138.97 538.85C127.62 538.85 121.32 538.85 120.06 538.85C120.06 538.85 120.06 538.85 120.06 538.85C120.06 499.14 120.06 477.09 120.06 472.67C120.06 472.67 120.06 472.67 120.06 472.67C131.4 472.67 137.71 472.67 138.97 472.67Z" id="a1NaAIICHO"></path></defs><g><g><g><use xlink:href="#a4eBVaOsMu" opacity="1" fill="#000000" fill-opacity="1"></use><g><use xlink:href="#a4eBVaOsMu" opacity="1" fill-opacity="0" stroke="#000000" stroke-width="1" stroke-opacity="0"></use></g></g><g><use xlink:href="#a1c33RRk5f" opacity="1" fill="#000000" fill-opacity="1"></use><g><use xlink:href="#a1c33RRk5f" opacity="1" fill-opacity="0" stroke="#000000" stroke-width="1" stroke-opacity="0"></use></g></g><g><use xlink:href="#b2Jy1qbkjo" opacity="1" fill="#000000" fill-opacity="1"></use><g><use xlink:href="#b2Jy1qbkjo" opacity="1" fill-opacity="0" stroke="#000000" stroke-width="1" stroke-opacity="0"></use></g></g><g><use xlink:href="#fc7SyKICr" opacity="1" fill="#000000" fill-opacity="1"></use><g><use xlink:href="#fc7SyKICr" opacity="1" fill-opacity="0" stroke="#000000" stroke-width="1" stroke-opacity="0"></use></g></g><g><use xlink:href="#aBbWTdFI6" opacity="1" fill="#000000" fill-opacity="1"></use><g><use xlink:href="#aBbWTdFI6" opacity="1" fill-opacity="0" stroke="#000000" stroke-width="1" stroke-opacity="0"></use></g></g><g><use xlink:href="#c10oCf4L9P" opacity="1" fill="#000000" fill-opacity="1"></use><g><use xlink:href="#c10oCf4L9P" opacity="1" fill-opacity="0" stroke="#000000" stroke-width="1" stroke-opacity="0"></use></g></g><g><use xlink:href="#a1NaAIICHO" opacity="1" fill="#000000" fill-opacity="1"></use><g><use xlink:href="#a1NaAIICHO" opacity="1" fill-opacity="0" stroke="#000000" stroke-width="1" stroke-opacity="0"></use></g></g></g></g></svg>